<svg xmlns="http://www.w3.org/2000/svg" version="1.1" xmlns:xlink="http://www.w3.org/1999/xlink" width="200" height="200"><svg xmlns="http://www.w3.org/2000/svg" version="1.1" xmlns:xlink="http://www.w3.org/1999/xlink" viewBox="0 0 200 200"><rect width="200" height="200" fill="url('#gradient')"></rect><defs><linearGradient id="SvgjsLinearGradient1001" gradientTransform="rotate(66 0.5 0.5)"><stop offset="0%" stop-color="#200861"></stop><stop offset="100%" stop-color="#080841"></stop></linearGradient></defs><g><g fill="#2563eb" transform="matrix(2.5518482624948082,0,0,2.5518482624948082,8.402846964990331,119.15150346013957)" stroke="#45c3f1" stroke-width="0.2"><path d="M8.41-3.78L8.41-3.78Q8.41-4.53 7.88-4.95Q7.34-5.37 6.01-5.82Q4.67-6.27 3.82-6.69L3.82-6.69Q1.05-8.05 1.05-10.42L1.05-10.42Q1.05-11.60 1.74-12.50Q2.43-13.41 3.69-13.91Q4.95-14.41 6.52-14.41L6.52-14.41Q8.06-14.41 9.27-13.87Q10.49-13.32 11.16-12.31Q11.84-11.30 11.84-10L11.84-10L8.42-10Q8.42-10.87 7.89-11.35Q7.35-11.83 6.45-11.83L6.45-11.83Q5.53-11.83 5.00-11.42Q4.46-11.02 4.46-10.39L4.46-10.39Q4.46-9.84 5.05-9.40Q5.63-8.96 7.11-8.48Q8.58-8.01 9.53-7.46L9.53-7.46Q11.84-6.13 11.84-3.80L11.84-3.80Q11.84-1.93 10.43-0.87Q9.02 0.20 6.57 0.20L6.57 0.20Q4.84 0.20 3.44-0.42Q2.04-1.04 1.33-2.12Q0.63-3.20 0.63-4.61L0.63-4.61L4.06-4.61Q4.06-3.47 4.65-2.92Q5.24-2.38 6.57-2.38L6.57-2.38Q7.42-2.38 7.92-2.75Q8.41-3.12 8.41-3.78ZM13.04-4.82L13.03-5.38Q13.03-6.96 13.64-8.20Q14.26-9.43 15.41-10.10Q16.56-10.76 18.12-10.76L18.12-10.76Q20.49-10.76 21.86-9.29Q23.22-7.82 23.22-5.29L23.22-5.29L23.22-5.18Q23.22-2.71 21.85-1.25Q20.48 0.20 18.13 0.20L18.13 0.20Q15.88 0.20 14.51-1.16Q13.14-2.51 13.04-4.82L13.04-4.82ZM16.33-5.77L16.32-5.18Q16.32-3.71 16.78-3.03Q17.24-2.34 18.13-2.34L18.13-2.34Q19.89-2.34 19.93-5.05L19.93-5.05L19.93-5.38Q19.93-8.22 18.12-8.22L18.12-8.22Q16.46-8.22 16.33-5.77L16.33-5.77ZM28.70 0L25.40 0L25.40-8.28L23.87-8.28L23.87-10.57L25.40-10.57L25.40-11.41Q25.40-13.21 26.46-14.21Q27.53-15.21 29.45-15.21L29.45-15.21Q30.16-15.21 31.00-15L31.00-15L31.01-12.58Q30.70-12.67 30.20-12.67L30.20-12.67Q28.70-12.67 28.70-11.38L28.70-11.38L28.70-10.57L30.76-10.57L30.76-8.28L28.70-8.28L28.70 0ZM32.46-13.19L35.75-13.19L35.75-10.57L37.49-10.57L37.49-8.28L35.75-8.28L35.75-3.45Q35.75-2.85 35.97-2.62Q36.18-2.38 36.82-2.38L36.82-2.38Q37.30-2.38 37.64-2.44L37.64-2.44L37.64-0.09Q36.75 0.20 35.78 0.20L35.78 0.20Q34.08 0.20 33.27-0.61Q32.46-1.41 32.46-3.04L32.46-3.04L32.46-8.28L31.11-8.28L31.11-10.57L32.46-10.57L32.46-13.19ZM46.27-3.78L46.27-3.78Q46.27-4.53 45.74-4.95Q45.21-5.37 43.87-5.82Q42.53-6.27 41.68-6.69L41.68-6.69Q38.92-8.05 38.92-10.42L38.92-10.42Q38.92-11.60 39.60-12.50Q40.29-13.41 41.55-13.91Q42.81-14.41 44.38-14.41L44.38-14.41Q45.92-14.41 47.13-13.87Q48.35-13.32 49.02-12.31Q49.70-11.30 49.70-10L49.70-10L46.28-10Q46.28-10.87 45.75-11.35Q45.21-11.83 44.31-11.83L44.31-11.83Q43.39-11.83 42.86-11.42Q42.32-11.02 42.32-10.39L42.32-10.39Q42.32-9.84 42.91-9.40Q43.50-8.96 44.97-8.48Q46.45-8.01 47.39-7.46L47.39-7.46Q49.70-6.13 49.70-3.80L49.70-3.80Q49.70-1.93 48.29-0.87Q46.88 0.20 44.43 0.20L44.43 0.20Q42.71 0.20 41.30-0.42Q39.90-1.04 39.19-2.12Q38.49-3.20 38.49-4.61L38.49-4.61L41.92-4.61Q41.92-3.47 42.51-2.92Q43.11-2.38 44.43-2.38L44.43-2.38Q45.28-2.38 45.78-2.75Q46.27-3.12 46.27-3.78ZM56.42 0.20L56.42 0.20Q53.98 0.20 52.48-1.25Q50.98-2.71 50.98-5.03L50.98-5.03L50.98-5.30Q50.98-6.92 51.58-8.16Q52.18-9.40 53.33-10.08Q54.48-10.76 56.06-10.76L56.06-10.76Q58.29-10.76 59.58-9.38Q60.87-8.00 60.87-5.53L60.87-5.53L60.87-4.25L54.33-4.25Q54.50-3.36 55.10-2.85Q55.69-2.34 56.64-2.34L56.64-2.34Q58.20-2.34 59.08-3.44L59.08-3.44L60.59-1.66Q59.97-0.81 58.84-0.31Q57.71 0.20 56.42 0.20ZM56.04-8.22L56.04-8.22Q54.60-8.22 54.33-6.31L54.33-6.31L57.65-6.31L57.65-6.56Q57.67-7.35 57.25-7.79Q56.83-8.22 56.04-8.22ZM65.66-15L65.66 0L62.36 0L62.36-15L65.66-15ZM71.16-15L71.16 0L67.86 0L67.86-15L71.16-15Z"></path></g></g></svg><style>@media (prefers-color-scheme: light) { :root { filter: none; } }
@media (prefers-color-scheme: dark) { :root { filter: none; } }
</style></svg>